<svg width="65" height="64" fill="none" xmlns="http://www.w3.org/2000/svg"><path d="M55.955 13.386l.404-.763a3.504 3.504 0 00-.905-4.35 3.574 3.574 0 00-1.435-.704 1.526 1.526 0 01-.77-.442l-.364-.386a3.562 3.562 0 00-4.794-.375l-1.837 1.419a.998.998 0 00-.162 1.395 1.011 1.011 0 001.405.181l1.833-1.419a1.542 1.542 0 012.075.161l.362.387c.478.51 1.098.866 1.781 1.026a1.546 1.546 0 011.043.85 1.513 1.513 0 01-.034 1.337l-1.445 2.766a.991.991 0 00.433 1.347 1.017 1.017 0 001.36-.427l.022-.041a28.28 28.28 0 011.829 2.725 5.778 5.778 0 00-2.966 3.09l-.391.984a5.67 5.67 0 00-.33 3.13 5.698 5.698 0 001.392 2.829l1.009 1.122a5.85 5.85 0 002.48 1.622l1.185.39a5.88 5.88 0 001.403.256 28.72 28.72 0 01-.13 3.3 3.895 3.895 0 00-.582-.48l-.146-.095a3.9 3.9 0 00-4.317 0l-.606.4a3.87 3.87 0 00-1.272 1.39 3.83 3.83 0 000 3.639 3.87 3.87 0 001.272 1.389l.135.089c.64.422 1.392.647 2.161.647.096 0 .193-.01.29-.017a5.28 5.28 0 00-.817.592l-1.134 1a5.916 5.916 0 00-1.634 2.457l-.167.5a12.166 12.166 0 00-.535 2.98 4.642 4.642 0 01-1.394 3.093 28.153 28.153 0 01-2.624 2.13l-.259-.527a1 1 0 00-.578-.508 1.019 1.019 0 00-1.085.281.996.996 0 00-.153 1.102l.665 1.354a.865.865 0 01.012.747.893.893 0 01-.596.5 2.89 2.89 0 00-1.715 1.307.886.886 0 01-.62.422.901.901 0 01-.727-.199l-2.3-1.942a1.012 1.012 0 00-1.114-.131 1.008 1.008 0 00-.502.582.991.991 0 00.304 1.07l.202.173A28.355 28.355 0 0119.953 57.2a4.732 4.732 0 01-1.67-1.309 4.676 4.676 0 01-.924-1.901 1 1 0 00-.437-.617 1.017 1.017 0 00-1.382.28.993.993 0 00-.158.737c.22.995.667 1.928 1.306 2.726A6.763 6.763 0 0019.068 59a30.55 30.55 0 0023.336 1.272l.285.241a2.923 2.923 0 002.368.648 2.915 2.915 0 001.167-.466c.35-.238.643-.549.858-.911a.907.907 0 01.549-.407 2.891 2.891 0 001.563-1.079 2.846 2.846 0 00.546-1.808 30.327 30.327 0 003.315-2.653 6.658 6.658 0 002.018-4.4c.042-.846.188-1.684.436-2.494l.164-.486a3.87 3.87 0 011.07-1.611l1.141-1.01c.194-.172.407-.322.634-.447a6.841 6.841 0 002.065-1.851 6.77 6.77 0 001.152-2.512 29.524 29.524 0 00.116-13.486 29.675 29.675 0 00-5.899-12.154h.003zm2.64 15.566a3.827 3.827 0 01-1.615-1.058l-1.01-1.118a3.696 3.696 0 01-.694-3.889l.394-.99a3.74 3.74 0 012.041-2.04 27.684 27.684 0 012.71 9.62 3.817 3.817 0 01-.648-.136l-1.179-.389zm-2.581 10.515l-.134-.089c-.257-.17-.467-.4-.613-.67a1.844 1.844 0 01.613-2.42l.605-.4a1.878 1.878 0 012.08 0l.144.095a1.84 1.84 0 01.837 1.546v.241c0 .414-.14.816-.397 1.142a1.875 1.875 0 01-1.022.658l-.617.153a1.889 1.889 0 01-1.496-.256zM15.12 50.364a10.018 10.018 0 00-3.78-2.28l-.707-.232a1.361 1.361 0 00-.081-.031 5.283 5.283 0 01-3.04-2.364c-.24-.431-.461-.872-.677-1.315l.754-.181a5.65 5.65 0 003.093-1.986 5.562 5.562 0 001.197-3.455v-.39a5.551 5.551 0 00-.668-2.65 5.612 5.612 0 00-1.855-2.02l-.22-.14a5.632 5.632 0 00-5.07-.6c-.013-.241-.029-.48-.029-.72 0-1.47.116-2.937.348-4.388a3.09 3.09 0 01.586-1.354 3.123 3.123 0 011.15-.934l.196-.1a5.913 5.913 0 002.22-2.06c.54-.882.837-1.89.86-2.921.022-1.48.28-2.946.761-4.346.162.118.355.186.556.194a1.016 1.016 0 00.908-.562.992.992 0 00-.112-1.054l-1.347-1.706a1.51 1.51 0 01.165-2.057l.387-.358a3.508 3.508 0 001.038-1.766 1.52 1.52 0 01.857-1.033 1.553 1.553 0 011.35.033l2.574 1.32a1.016 1.016 0 001.36-.427.965.965 0 00.086-.588A28.28 28.28 0 0134.676 4.1a27.758 27.758 0 019.033 2.3c.244.108.522.116.772.02.25-.094.453-.283.562-.526a.992.992 0 00.02-.765 1.004 1.004 0 00-.53-.556 29.817 29.817 0 00-9.69-2.464 30.368 30.368 0 00-18.53 4.432l-1.424-.731a3.584 3.584 0 00-4.388.894c-.343.414-.586.9-.711 1.422-.07.294-.227.56-.45.765l-.387.358A3.483 3.483 0 008.573 14l.13.166a15.564 15.564 0 00-1.321 6.043 3.863 3.863 0 01-.57 1.93 3.866 3.866 0 01-1.424 1.316l-.143.068a5.138 5.138 0 00-1.894 1.542 5.076 5.076 0 00-.96 2.235 29.798 29.798 0 003.354 19.12A7.172 7.172 0 009.86 49.7c.025.01.05.02.075.028l.766.252a7.973 7.973 0 013.012 1.82 1.014 1.014 0 001.42-.027.995.995 0 00-.013-1.407v-.002zm-7.1-15.375l.224.144a3.61 3.61 0 011.188 1.298c.282.524.428 1.109.426 1.702v.39a3.579 3.579 0 01-.766 2.22 3.637 3.637 0 01-1.985 1.28l-1.003.24c-.034.009-.067.013-.101.02a27.787 27.787 0 01-1.809-7.425 3.616 3.616 0 013.826.13z" fill="#6EB9E0"/><path d="M16.109 27.222a5.812 5.812 0 002.489 1.624l1.178.39a5.872 5.872 0 004.676-.434l.733-.406a.993.993 0 00.389-1.362 1.019 1.019 0 00-1.375-.385l-.732.407a3.826 3.826 0 01-3.05.284l-1.18-.391a3.792 3.792 0 01-1.622-1.06l-1.01-1.118a3.703 3.703 0 01-.694-3.885l.395-.985a3.774 3.774 0 011.928-2.018 3.826 3.826 0 012.8-.155l1.817.6a3.782 3.782 0 011.624 1.06l1.129 1.253a3.728 3.728 0 01.767 3.688.993.993 0 00.296 1.074 1.013 1.013 0 001.114.14 1.009 1.009 0 00.508-.58c.323-.96.384-1.99.178-2.983a5.745 5.745 0 00-1.353-2.671l-1.13-1.253a5.803 5.803 0 00-2.488-1.624l-1.817-.6a5.865 5.865 0 00-4.292.238 5.785 5.785 0 00-2.955 3.093l-.394.984a5.673 5.673 0 00-.327 3.127 5.701 5.701 0 001.39 2.826l1.008 1.122zM34.38 53.6l.214.14a5.696 5.696 0 004.512.775l.992-.246a5.657 5.657 0 003.089-1.988 5.568 5.568 0 001.197-3.451.996.996 0 00-.295-.707 1.014 1.014 0 00-1.428 0 .995.995 0 00-.295.707 3.579 3.579 0 01-.77 2.221c-.5.635-1.2 1.085-1.988 1.279l-.992.246a3.684 3.684 0 01-2.902-.5l-.216-.141a3.62 3.62 0 01-1.189-1.3 3.582 3.582 0 010-3.401 3.62 3.62 0 011.189-1.3l.977-.644a3.657 3.657 0 014.037 0l.235.156c.249.165.477.36.677.58a1.014 1.014 0 001.758-.619.995.995 0 00-.258-.721 5.616 5.616 0 00-1.058-.9l-.234-.155a5.676 5.676 0 00-6.277 0l-.976.645a5.626 5.626 0 00-1.85 2.02 5.567 5.567 0 000 5.291 5.627 5.627 0 001.85 2.02V53.6zm7.869-31.375l-.606.4a3.87 3.87 0 00-1.273 1.39 3.83 3.83 0 000 3.639 3.87 3.87 0 001.273 1.389l.134.089a3.917 3.917 0 003.103.532l.616-.152a3.89 3.89 0 002.125-1.367 3.829 3.829 0 00.823-2.375v-.241a3.81 3.81 0 00-.46-1.82 3.861 3.861 0 00-1.273-1.39l-.145-.094a3.901 3.901 0 00-4.317 0zm3.198 1.664l.144.1a1.858 1.858 0 01.835 1.54v.24c0 .415-.14.817-.397 1.143a1.875 1.875 0 01-1.022.658l-.617.153a1.887 1.887 0 01-1.493-.257l-.135-.09a1.844 1.844 0 010-3.09l.606-.4a1.879 1.879 0 012.079.003zM26.638 38.13a3.916 3.916 0 003.103.533l.616-.152a3.89 3.89 0 002.125-1.367 3.828 3.828 0 00.824-2.374v-.241c0-.635-.158-1.26-.46-1.82a3.861 3.861 0 00-1.273-1.39l-.146-.094a3.902 3.902 0 00-4.317 0l-.606.4a3.87 3.87 0 00-1.273 1.39 3.83 3.83 0 000 3.639 3.87 3.87 0 001.273 1.389l.134.088zm.248-3.884a1.87 1.87 0 01.737-.958l.606-.4a1.878 1.878 0 012.079 0l.144.095a1.84 1.84 0 01.835 1.546v.24c0 .415-.14.817-.397 1.143a1.875 1.875 0 01-1.022.658l-.617.153a1.887 1.887 0 01-1.493-.257l-.135-.09a1.86 1.86 0 01-.731-.941 1.843 1.843 0 01-.006-1.19zm12.475-21.717c0-.635-.157-1.26-.46-1.82a3.863 3.863 0 00-1.273-1.389l-.145-.1a3.901 3.901 0 00-4.318 0l-.605.4a3.87 3.87 0 00-1.273 1.39 3.828 3.828 0 000 3.639 3.87 3.87 0 001.273 1.389l.134.089a3.914 3.914 0 003.102.532l.617-.152a3.89 3.89 0 002.124-1.365 3.829 3.829 0 00.824-2.372v-.241zm-2.018.241c0 .414-.14.816-.398 1.142a1.875 1.875 0 01-1.022.658l-.616.153a1.886 1.886 0 01-1.494-.257l-.134-.089a1.863 1.863 0 01-.834-1.545 1.845 1.845 0 01.834-1.545l.605-.4a1.878 1.878 0 012.08 0l.144.1a1.86 1.86 0 01.834 1.542v.241zM48.444 35a2.98 2.98 0 00-.51-1.667 3.021 3.021 0 00-1.359-1.105 3.054 3.054 0 00-3.3.65 3 3 0 00-.828 1.537 2.974 2.974 0 00.172 1.733 3.01 3.01 0 001.116 1.346 3.047 3.047 0 003.823-.373A2.986 2.986 0 0048.444 35zm-3.027 1a1.016 1.016 0 01-.933-.617.992.992 0 01.219-1.09 1.012 1.012 0 011.1-.217.994.994 0 01.327 1.631 1.011 1.011 0 01-.713.293zM23.213 54c.599 0 1.184-.176 1.682-.506s.886-.798 1.115-1.346a2.975 2.975 0 00-.656-3.27 3.054 3.054 0 00-3.3-.65 3.02 3.02 0 00-1.358 1.105 2.98 2.98 0 00.376 3.788 3.042 3.042 0 002.141.879zm0-4a1.016 1.016 0 01.932.617.991.991 0 01-.218 1.09 1.012 1.012 0 01-1.1.217.994.994 0 01-.327-1.631 1.01 1.01 0 01.713-.293zm-5.046-7c.598 0 1.184-.176 1.682-.506s.886-.798 1.115-1.346a2.974 2.974 0 00-.656-3.27 3.054 3.054 0 00-3.3-.65 3.021 3.021 0 00-1.359 1.105 2.98 2.98 0 00.377 3.788 3.042 3.042 0 002.14.879zm0-4a1.016 1.016 0 01.932.617.992.992 0 01-.219 1.09 1.012 1.012 0 01-1.1.217.994.994 0 01-.328-1.631c.19-.188.447-.293.715-.293zm19.176-7c.557 0 1.009-.448 1.009-1s-.452-1-1.01-1c-.557 0-1.009.448-1.009 1s.452 1 1.01 1zm-1.01-9c.558 0 1.01-.448 1.01-1s-.452-1-1.01-1c-.557 0-1.009.448-1.009 1s.452 1 1.01 1zm10.879-7.22c.557 0 1.01-.448 1.01-1s-.453-1-1.01-1c-.557 0-1.01.448-1.01 1s.453 1 1.01 1zM45.417 42c.557 0 1.009-.448 1.009-1s-.452-1-1.01-1c-.557 0-1.009.448-1.009 1s.452 1 1.01 1zM23.213 12c.557 0 1.01-.448 1.01-1s-.453-1-1.01-1c-.558 0-1.01.448-1.01 1s.453 1 1.01 1zM13.12 31c.558 0 1.01-.448 1.01-1s-.452-1-1.01-1c-.557 0-1.009.448-1.009 1s.452 1 1.01 1z" fill="#6EB9E0"/></svg>