<svg width="65" height="64" fill="none" xmlns="http://www.w3.org/2000/svg"><g clip-path="url(#clip0_60_90)" stroke="#6EB9E0" stroke-width="2" stroke-miterlimit="10" stroke-linecap="round" stroke-linejoin="round"><path d="M19.818 41.817l-2.26 2.26a2.343 2.343 0 01-3.314-3.313l2.26-2.26m9.406 9.404l-2.261 2.26a2.343 2.343 0 11-3.313-3.312l2.26-2.26M55.144 7.367l-5.377 1.44m5.839 5.839l1.441-5.376m-11.94 32.073l-2.975-2.974m-.375 6.324l-2.82-2.82m22.171 7.601L51.026 39.389a2.806 2.806 0 00-3.965 0l-7.258 7.257a2.806 2.806 0 000 3.965l11.632 11.63a2.802 2.802 0 003.963 0l7.258-7.257a2.79 2.79 0 00.82-1.937m-9.385-10.591L42.87 53.677m5.497 5.498l11.221-11.222m-.562 10.66L43.431 43.018M26.044 22.281l-2.974-2.974m-.53 6.169l-2.82-2.82M13.393 1.758L25.024 13.39a2.803 2.803 0 010 3.964l-7.257 7.258a2.803 2.803 0 01-3.964 0L2.172 12.98a2.803 2.803 0 010-3.964L9.43 1.758a2.803 2.803 0 013.963 0zm8.564 8.564L10.736 21.544m-5.497-5.497L16.46 4.825M5.8 5.387l15.595 15.595"/><path d="M46.217 25.344l-7.147-7.148a6.036 6.036 0 00-8.334-.192L15.572 31.828a3.882 3.882 0 00-.13 5.613l11.53 11.53a3.882 3.882 0 005.613-.13L46.41 33.678a6.035 6.035 0 00-.193-8.334z"/><path d="M39.255 7.1a14.112 14.112 0 011.98-3.781 1.863 1.863 0 012.82-.224l17.263 17.264a1.863 1.863 0 01-.223 2.818c-5.56 4.092-13.423 3.623-18.452-1.407a14.16 14.16 0 01-4.156-10.37m19.255-7.42a2.69 2.69 0 110 5.382 2.69 2.69 0 010-5.381zM30.736 18.004L46.41 33.678M32.585 48.841l-3.918-3.917m-3.086-3.087L15.572 31.83m19.458-2.447a2.869 2.869 0 00-4.056 0l-3.987 3.987a2.869 2.869 0 004.057 4.056l3.986-3.986a2.868 2.868 0 000-4.057z"/></g><defs><clipPath id="clip0_60_90"><path fill="#fff" transform="matrix(1 0 0 -1 .413 64)" d="M0 0h64v64H0z"/></clipPath></defs></svg>