<svg width="64" height="64" fill="none" xmlns="http://www.w3.org/2000/svg"><path d="M20.288 45.632l-3.264 3.264a1.264 1.264 0 01-.896.384c-.32 0-.64-.128-.896-.384a1.237 1.237 0 010-1.792l3.264-3.264a1.237 1.237 0 011.792 0c.512.512.512 1.28 0 1.792zm-5.504 4.352c-.064-.064-.064-.128-.128-.192s-.128-.128-.128-.192c-.064-.064-.128-.128-.192-.128-.064-.064-.128-.064-.256-.128-.064-.064-.128-.064-.256-.064-.448-.064-.896.064-1.152.32-.064.064-.128.128-.128.192-.064.064-.064.128-.128.192s-.064.128-.064.256v.256c0 .32.128.64.384.896.064.064.128.128.192.128.064.064.128.064.192.128.064 0 .128.064.256.064h.256c.192 0 .32 0 .512-.128.128-.064.32-.128.384-.256.256-.256.384-.576.384-.896v-.256c-.064 0-.064-.128-.128-.192zm1.664-8.128a1.237 1.237 0 000-1.792 1.237 1.237 0 00-1.792 0l-2.048 2.048c-.064.064-2.112 2.112-4.096.704-.576-.384-1.344-.256-1.792.32-.384.576-.256 1.344.32 1.792.96.704 1.984.96 2.944.96 1.92 0 3.584-1.088 4.48-1.92l1.984-2.112zm-10.816-.192c0-.064-.064-.128-.128-.192s-.064-.128-.128-.192c-.448-.512-1.344-.448-1.792 0-.064.064-.128.128-.128.192s-.128.128-.192.192-.064.128-.064.256v.256c0 .192 0 .32.064.512s.128.32.256.448c.32.192.64.32.96.32.32 0 .64-.128.896-.384s.384-.576.384-.896v-.256c-.064-.128-.064-.192-.128-.256zm16.512 5.888L20.096 49.6c-1.28 1.28-3.072 4.416-.96 7.424.256.32.64.512 1.024.512.256 0 .512-.064.768-.256.576-.384.704-1.216.32-1.792-1.344-1.92.448-3.904.704-4.096L24 49.344a1.237 1.237 0 000-1.792 1.313 1.313 0 00-1.856 0zm.896 11.456c0-.064-.064-.128-.128-.192s-.128-.128-.128-.192c-.064-.064-.128-.128-.192-.128s-.128-.064-.256-.128c-.064 0-.128-.064-.256-.064a1.454 1.454 0 00-1.152.32c-.064.064-.128.128-.128.192-.064.064-.064.128-.128.192s-.064.128-.064.256v.256c0 .32.128.64.384.896s.576.384.896.384c.32 0 .64-.128.896-.384s.384-.576.384-.896v-.256a.485.485 0 01-.128-.256zm32.448-34.304c-.896 1.152-2.048 2.304-3.328 3.584.576 3.136 1.664 14.976-10.24 23.552-.128.064-.192.128-.32.128h-.064c-.128 0-.192.064-.32.064h-.32c-.064 0-.128-.064-.192-.064s-.064 0-.064-.064c-.064 0-.128-.064-.128-.064-.064 0-.064-.064-.064-.064-.064-.064-.128-.064-.128-.128l-.064-.064c0-.064-.064-.064-.064-.128l-.064-.064c0-.064 0-.064-.064-.128 0-.064 0-.064-.064-.128v-.256c0-2.56-2.176-6.272-4.352-9.216-.064.064-.192.128-.256.192-.64.448-1.408.704-2.112.704-.448 0-.896-.064-1.28-.256l-2.304 2.368c-.576.576-1.344.832-2.112.832s-1.536-.32-2.112-.832l-5.824-5.824c-.576-.576-.832-1.28-.832-2.112 0-.768.32-1.536.832-2.112l2.368-2.368c-.512-1.088-.32-2.368.384-3.392.064-.064.064-.128.128-.192-2.944-2.176-6.656-4.352-9.216-4.352-.128 0-.256 0-.32-.064h-.064c-.128-.064-.192-.064-.32-.128s-.064-.064-.064-.064c-.064 0-.064-.064-.128-.128l-.064-.064s-.192-.32-.192-.384-.064-.064-.064-.128-.064-.064-.064-.128 0-.064-.064-.128c0-.064 0-.064-.064-.128v-.448c0-.064 0-.064.064-.128 0-.064 0-.064.064-.128l.064-.064c0-.064.064-.064.064-.128 5.184-7.168 11.52-9.536 15.872-10.24 3.52-.576 6.336-.192 7.68 0a41.726 41.726 0 013.584-3.328c6.4-5.184 16.448-5.376 19.392-5.312A2.13 2.13 0 0160.8 5.312c.064 2.944-.128 12.992-5.312 19.392zm-31.552 1.664c2.368-3.264 5.824-7.936 9.408-11.904l.32-.32c-3.776-.32-11.52.064-17.984 7.68l-.064.064c2.752.768 5.888 2.688 8.32 4.48zm5.696 14.4c-2.816-1.984-4.928-4.48-6.336-6.464l-1.984 1.984c-.128.128-.128.256-.128.32s0 .192.128.32l5.824 5.824c.128.128.448.128.576 0l1.92-1.984zM49.92 30.4c-.128.128-.192.192-.32.256-4.16 3.648-8.896 7.168-11.968 9.408 1.792 2.432 3.712 5.568 4.48 8.384l.064-.064C49.792 41.92 50.24 34.176 49.92 30.4zm8.32-24.64h-.32c-3.328 0-11.712.448-17.088 4.736-5.888 4.736-14.08 16.192-16.512 19.584-.192.32-.32.704-.128.96.512.896 1.472 2.368 2.88 3.968l5.504-5.504a1.237 1.237 0 011.792 0c.512.512.512 1.28 0 1.792L28.8 36.864a20.604 20.604 0 003.968 2.944c.256.128.64.064.896-.128 3.392-2.368 14.912-10.624 19.648-16.512C57.92 17.6 58.24 8.896 58.24 5.76zm-9.088 9.088a5.72 5.72 0 010 8.064 5.61 5.61 0 01-4.032 1.664 5.61 5.61 0 01-4.032-1.664c-2.24-2.24-2.24-5.824 0-8a5.61 5.61 0 014.032-1.664c1.472 0 2.944.576 4.032 1.6zm-1.856 1.856c-.576-.576-1.344-.896-2.24-.896-.832 0-1.6.32-2.176.896a3.129 3.129 0 000 4.416 3.048 3.048 0 002.176.896c.832 0 1.6-.32 2.24-.896a3.129 3.129 0 000-4.416zM36.608 27.008c-.064-.064-.128-.128-.192-.128s-.128-.064-.256-.064c-.128-.064-.32-.064-.512 0-.064 0-.128.064-.256.064s-.128.064-.192.128-.128.064-.192.128a1.264 1.264 0 00-.384.896v.256c0 .064.064.128.064.256.064.064.064.128.128.256.064.064.128.128.128.192.064.064.128.128.192.128.064.064.128.064.192.128s.128.064.256.064h.512c.064 0 .192-.064.256-.064s.128-.064.192-.128.128-.128.192-.128c.064-.064.128-.128.128-.192.064-.064.064-.128.128-.256.064-.064.064-.128.064-.256v-.256c0-.32-.128-.64-.384-.896.128-.064 0-.128-.064-.128z" fill="#6EB9E0"/></svg>