<svg width="64" height="64" fill="none" xmlns="http://www.w3.org/2000/svg"><g clip-path="url(#clip0_60_200)" fill="#6EB9E0"><path d="M5.555 11.655a1.067 1.067 0 001.387-.587A7.443 7.443 0 0113.867 6.4a1.067 1.067 0 100-2.133 9.569 9.569 0 00-8.9 5.999 1.067 1.067 0 00.588 1.39zM11.071 22.4c.457.002.896-.178 1.22-.501.379-.38.563-.914.497-1.447a7.824 7.824 0 00-1.995-4.586 7.802 7.802 0 00-4.579-1.988 1.725 1.725 0 00-1.936 1.92 7.723 7.723 0 002 4.587 7.697 7.697 0 004.574 2.005 1.7 1.7 0 00.219.01zm-3.284-3.527a5.344 5.344 0 01-1.315-2.802 5.432 5.432 0 012.808 1.305 5.44 5.44 0 011.312 2.816 5.362 5.362 0 01-2.805-1.32zm10.24 7.204a1.067 1.067 0 00-1.906-.96 2.905 2.905 0 01-2.254 1.55 2.907 2.907 0 01-2.249-1.549 1.067 1.067 0 10-1.906.96 5.007 5.007 0 004.155 2.722 5.007 5.007 0 004.16-2.723z"/><path d="M64 13.867A13.858 13.858 0 0041.06 3.392a13.793 13.793 0 00-18.12 0A13.858 13.858 0 000 13.867c0 6.841 5.502 16.107 10.627 19.2a4.333 4.333 0 01-1.347 3.2H7.467A7.475 7.475 0 000 43.733v18.134C0 63.045.955 64 2.133 64h59.734A2.133 2.133 0 0064 61.867V43.734a7.475 7.475 0 00-7.467-7.467H54.72a4.324 4.324 0 01-1.348-3.2C58.498 29.974 64 20.708 64 13.867zm-18.453 3.52a5.359 5.359 0 011.305 2.803 6.037 6.037 0 01-1.996-.71c.238-.735.441-1.46.596-2.171.033.024.07.046.095.078zm-1.814-3.52a17.103 17.103 0 01-1.141 5.697v.015a27.967 27.967 0 01-2.379 4.899l-.017.027c-.278.456-.565.912-.872 1.36C36.809 29.534 33.868 32 32 32c-2.29 0-5.632-3.26-8.164-7.434a.823.823 0 00-.065-.107c-2.011-3.355-3.504-7.285-3.504-10.592 0-6.48 5.253-11.734 11.733-11.734s11.733 5.254 11.733 11.734zm1.814 22.4h-1.814c-.91 0-1.811.17-2.658.504a7.408 7.408 0 00-2.675-.504h-1.813a4.324 4.324 0 01-1.349-3.2 20.614 20.614 0 005.834-5.989 21.439 21.439 0 005.822 5.98 4.34 4.34 0 01-1.347 3.209zm-1.814 25.6h-3.2v-19.2a1.067 1.067 0 10-2.133 0v19.2H25.6v-19.2a1.067 1.067 0 00-2.133 0v19.2h-3.2V43.734A5.34 5.34 0 0125.6 38.4h1.6a6.08 6.08 0 004.8 2.133 6.08 6.08 0 004.8-2.133h1.6a5.34 5.34 0 015.333 5.334v18.133zm-25.28-25.6a4.337 4.337 0 01-1.349-3.209 21.382 21.382 0 005.807-5.958 20.627 20.627 0 005.85 5.967 4.332 4.332 0 01-1.348 3.2H25.6a7.408 7.408 0 00-2.675.504 7.243 7.243 0 00-2.658-.504h-1.814zm14.731-2.299c.16 1.289.706 2.5 1.566 3.472a4.438 4.438 0 01-5.503 0 6.445 6.445 0 001.567-3.475 4.71 4.71 0 001.186.168c.4-.004.797-.06 1.184-.165zM18.538 17.312c.156.718.355 1.444.592 2.173a6.094 6.094 0 01-1.986.702 5.366 5.366 0 011.31-2.8c.022-.03.056-.05.084-.075zM2.133 13.867a11.733 11.733 0 0119.307-8.96 13.8 13.8 0 00-3.307 8.96c0 .356.02.72.05 1.089-.452.251-.87.56-1.241.92a7.713 7.713 0 00-1.987 4.55A1.717 1.717 0 0016.64 22.4c.079 0 .157-.006.235-.018a8.922 8.922 0 003.008-.877 30.873 30.873 0 001.79 3.61 19.155 19.155 0 01-6.065 6.352l-.03.014a3.795 3.795 0 01-1.711.52C9.723 32 2.133 21.34 2.133 13.866zm11.734 20.267a4.8 4.8 0 001.185-.167 6.43 6.43 0 001.566 3.473 4.115 4.115 0 01-2.751.96 4.103 4.103 0 01-2.753-.96 6.445 6.445 0 001.566-3.475c.387.106.786.163 1.187.168zm-6.4 27.733v-19.2a1.067 1.067 0 10-2.134 0v19.2h-3.2V43.734A5.34 5.34 0 017.467 38.4h1.6a6.08 6.08 0 004.8 2.133 6.08 6.08 0 004.8-2.133h1.6c.037 0 .073.006.106.006a7.447 7.447 0 00-2.24 5.328v18.133H7.467zm54.4-18.133v18.133h-3.2v-19.2a1.067 1.067 0 00-2.134 0v19.2H45.867V43.734a7.447 7.447 0 00-2.24-5.328c.037 0 .073-.006.106-.006h1.6a6.462 6.462 0 009.6 0h1.6a5.34 5.34 0 015.334 5.334zm-8.984-6.294a4.438 4.438 0 01-5.503 0 6.442 6.442 0 001.567-3.478 4.36 4.36 0 002.371 0 6.446 6.446 0 001.565 3.478zm-.916-5.993a1.043 1.043 0 00-.286.143 3.691 3.691 0 01-1.548.41c-2.011 0-5.24-2.875-7.814-6.904a30.738 30.738 0 001.79-3.597 8.795 8.795 0 002.987.879 1.706 1.706 0 001.957-1.91 7.746 7.746 0 00-1.99-4.587 5.955 5.955 0 00-1.252-.925c.029-.366.06-.734.06-1.084 0-1.797-.352-3.577-1.036-5.24A7.411 7.411 0 0150.133 6.4a1.067 1.067 0 000-2.133 9.54 9.54 0 00-6.312 2.388 13.796 13.796 0 00-1.261-1.748 11.733 11.733 0 0119.307 8.96c0 6.467-5.683 15.317-9.9 17.583v-.003z"/><path d="M59.228 14.37a1.725 1.725 0 00-1.428-.492 7.828 7.828 0 00-4.6 1.996 7.825 7.825 0 00-1.988 4.578 1.745 1.745 0 00.498 1.447 1.713 1.713 0 001.43.487 7.701 7.701 0 004.572-2 7.72 7.72 0 002.005-4.575 1.729 1.729 0 00-.49-1.44zm-3.022 4.51a5.345 5.345 0 01-2.802 1.313 5.433 5.433 0 011.305-2.806 5.44 5.44 0 012.82-1.311 5.346 5.346 0 01-1.323 2.804zm-2.39 5.772a1.067 1.067 0 00-1.434.465 2.905 2.905 0 01-2.249 1.55 2.902 2.902 0 01-2.24-1.544 1.067 1.067 0 00-1.909.954 5.007 5.007 0 004.15 2.723 5.007 5.007 0 004.16-2.723 1.067 1.067 0 00-.478-1.425zM23.689 11.655a1.067 1.067 0 001.386-.587A7.443 7.443 0 0132 6.4a1.067 1.067 0 100-2.133 9.57 9.57 0 00-8.9 5.999 1.067 1.067 0 00.589 1.39zM29.204 22.4c.457.002.896-.178 1.22-.501.38-.38.563-.914.498-1.447a7.824 7.824 0 00-1.996-4.586 7.802 7.802 0 00-4.578-1.988 1.725 1.725 0 00-1.936 1.92 7.723 7.723 0 002 4.587 7.697 7.697 0 004.574 2.005 1.7 1.7 0 00.218.01zm-3.284-3.527a5.345 5.345 0 01-1.315-2.802 5.432 5.432 0 012.808 1.305 5.44 5.44 0 011.312 2.816 5.362 5.362 0 01-2.805-1.32zm8.874 3.527a7.701 7.701 0 004.785-2.014 7.72 7.72 0 002.005-4.575 1.726 1.726 0 00-1.92-1.934 7.829 7.829 0 00-4.6 1.996 7.824 7.824 0 00-1.989 4.578 1.745 1.745 0 00.498 1.447c.324.323.763.504 1.22.502zm1.782-5.013a5.44 5.44 0 012.82-1.311 5.345 5.345 0 01-1.323 2.807 5.345 5.345 0 01-2.803 1.313 5.432 5.432 0 011.306-2.81zm-.894 7.265a1.067 1.067 0 00-1.433.465A2.905 2.905 0 0132 26.667a2.907 2.907 0 01-2.248-1.55 1.067 1.067 0 10-1.907.96A5.007 5.007 0 0032 28.8a5.007 5.007 0 004.16-2.723 1.067 1.067 0 00-.478-1.425z"/></g><defs><clipPath id="clip0_60_200"><path fill="#fff" d="M0 0h64v64H0z"/></clipPath></defs></svg>