<svg width="64" height="64" fill="none" xmlns="http://www.w3.org/2000/svg"><path d="M4.833 45.034l2.448-2.47.002-.003 13.378-13.5a10.364 10.364 0 01-6.932-3.386c-3.469-3.546-3.81-7.162-4.139-10.66-.31-3.294-.604-6.405-3.577-9.444a1 1 0 01-.227-1.103 1 1 0 01.547-.546.983.983 0 011.09.244c3.47 3.546 3.81 7.162 4.14 10.66.31 3.294.603 6.405 3.576 9.444 2.632 2.69 4.917 2.89 7.456 2.839l4.6-4.643-2.82-10.967-.76-2.908a4.038 4.038 0 01.41-3.03 3.973 3.973 0 012.41-1.854 3.937 3.937 0 013.003.402c.91.53 1.574 1.4 1.848 2.423l.767 2.888.002.006.8 3.011 3.817-3.853a2.96 2.96 0 012.102-.878c.788 0 1.544.316 2.102.878l.59.595a9.814 9.814 0 015.64-.483 9.872 9.872 0 014.98 2.716 10.019 10.019 0 012.692 5.027 10.077 10.077 0 01-.478 5.693l.588.594c.557.563.87 1.326.87 2.121 0 .796-.313 1.559-.87 2.122l-3.828 3.864 3.013.815.008.004 2.859.772a3.974 3.974 0 012.402 1.864 4.04 4.04 0 01.398 3.033 4.001 4.001 0 01-1.838 2.431 3.937 3.937 0 01-3.003.414l-2.88-.767-10.867-2.846-19.905 20.09-.006.008-2.45 2.472a4.444 4.444 0 01-3.147 1.326 4.412 4.412 0 01-3.152-1.315 4.523 4.523 0 01.011-6.358l2.446-2.469.004-.006c2.581-2.597 6.221-6.265 7.71-7.773l-1.389-1.4a5010.302 5010.302 0 00-7.702 7.781l-2.45 2.472a4.381 4.381 0 01-3.145 1.315H7.97a4.417 4.417 0 01-2.468-.76 4.479 4.479 0 01-1.635-2.014 4.526 4.526 0 01-.251-2.591c.172-.87.596-1.67 1.217-2.297zM26.938 5.632c-.508.138-.94.473-1.204.932a2.026 2.026 0 00-.203 1.517l.506 1.938 3.846-1.04-.511-1.929a2.006 2.006 0 00-.927-1.217 1.974 1.974 0 00-1.507-.201zm12.537 4.366a.992.992 0 00-.701-.293.983.983 0 00-.701.293l-4.626 4.67.66 2.49 1.08 1.09a10.036 10.036 0 011.225-4.604 9.931 9.931 0 013.204-3.503l-.141-.143zm11.21 2.828a7.862 7.862 0 00-9.608-1.25 7.975 7.975 0 00-3.345 3.912 8.064 8.064 0 00-.277 5.158c.007.017.006.036.012.053a8.02 8.02 0 001.744 3.157 7.925 7.925 0 002.943 2.06 7.86 7.86 0 006.956-.544 7.955 7.955 0 002.593-2.493 8.068 8.068 0 00.877-6.986 8.01 8.01 0 00-1.895-3.067zm2.802 12.729a1.006 1.006 0 000-1.415l-.14-.142a9.91 9.91 0 01-3.471 3.233 9.804 9.804 0 01-4.563 1.237l1.099 1.108 2.438.66 4.637-4.681zm1.919 12.678c.508.134 1.049.06 1.503-.208.454-.267.785-.705.92-1.218a2.022 2.022 0 00-.2-1.518 1.99 1.99 0 00-1.202-.933l-1.91-.516-1.03 3.881 1.919.512zm-42.223 17.72c0 .492.146.972.417 1.381a2.47 2.47 0 001.107.915 2.445 2.445 0 002.684-.54l1.75-1.766-3.487-3.519-1.75 1.766a2.474 2.474 0 00-.721 1.763zm8.105-17.236c.26.002.508.108.691.293l2.782 2.807a1 1 0 01.29.708c0 .425 0 .438-7.996 8.485l3.485 3.518 19.533-19.714a.986.986 0 011.021-.342l10.475 2.743 1.034-3.895-7.008-1.895a1.044 1.044 0 01-.602-.452l-2.955-2.983a9.805 9.805 0 01-3.965-2.436 9.927 9.927 0 01-2.413-4l-2.937-2.966a1.052 1.052 0 01-.447-.604l-.852-3.208a.965.965 0 01-.032-.122l-.994-3.745-3.859 1.044 2.718 10.572a1.032 1.032 0 01-.151.773 1.003 1.003 0 01-.179.248l-3.49 3.522a12.27 12.27 0 012.438.294l3.192-3.222a1.015 1.015 0 011.401 0l7.007 7.071a1.005 1.005 0 010 1.414l-5.606 5.657a.987.987 0 01-1.4 0l-7.007-7.07a1.005 1.005 0 010-1.415l.685-.691a23.354 23.354 0 00-2.66-.02l-.051.001L9.385 43.27l3.485 3.518c7.978-8.073 7.99-8.068 8.418-8.07zm11.888-6.806a.987.987 0 01-1.401-.009 9.237 9.237 0 00-3.327-2.29l-.884.892 5.605 5.657 4.204-4.243-5.605-5.657-1.816 1.833a11.77 11.77 0 013.232 2.402 1.005 1.005 0 01-.008 1.415zM6.229 49.962a2.445 2.445 0 001.744.733h.004a2.432 2.432 0 001.744-.728l1.75-1.765-3.487-3.519-1.75 1.765a2.505 2.505 0 00-.72 1.756c0 .658.257 1.29.715 1.758z" fill="#6EB9E0"/><path d="M47.882 24.105a3.42 3.42 0 01-2.452-1.026l-4.905-4.949a3.502 3.502 0 01-1.015-2.475 3.528 3.528 0 011.015-2.475 3.466 3.466 0 012.453-1.025 3.44 3.44 0 012.452 1.025l4.904 4.95a3.51 3.51 0 01.949 1.792 3.531 3.531 0 01-.198 2.022 3.493 3.493 0 01-1.277 1.57 3.44 3.44 0 01-1.926.59zm1.051-4.561l-4.904-4.95a1.48 1.48 0 00-2.103 0 1.507 1.507 0 000 2.122l4.905 4.95a1.517 1.517 0 002.103 0 1.507 1.507 0 000-2.122z" fill="#6EB9E0"/></svg>