<svg width="65" height="64" fill="none" xmlns="http://www.w3.org/2000/svg"><g clip-path="url(#clip0_60_49)" fill="#6EB9E0"><path d="M58.717 43.737a27.904 27.904 0 001.052-7.608 27.77 27.77 0 00-7.516-19.038A27.76 27.76 0 0033.89 8.327l-1.973-.07h-.034c-11.122.005-20.17 9.057-20.17 20.178 0 2.052.307 4.067.913 6.005a3.848 3.848 0 003.623 6.727c3.388 4.153 8.316 6.818 13.632 7.347l2.003.1h.024c6.88-.006 12.476-5.606 12.476-12.486 0-4.957-2.98-9.462-7.488-11.438l.002-.085a4.996 4.996 0 00-4.99-4.99 4.996 4.996 0 00-4.956 5.574 8.686 8.686 0 00-2.542 2.774l1.667.96a6.75 6.75 0 011.52-1.806 4.992 4.992 0 004.31 2.479 4.997 4.997 0 004.568-2.984c3.618 1.747 5.986 5.452 5.986 9.516 0 5.812-4.722 10.545-10.531 10.562l-1.883-.092c-4.761-.48-9.178-2.858-12.237-6.56a3.833 3.833 0 00.887-2.455 3.855 3.855 0 00-4.27-3.828 18.171 18.171 0 01-.79-5.32c0-10.056 8.176-18.241 18.23-18.254l1.905.066a25.842 25.842 0 0117.078 8.157 25.853 25.853 0 016.997 17.724c0 2.32-.305 4.613-.908 6.828a4.814 4.814 0 00-5.803 4.704 4.8 4.8 0 001.759 3.715c-4.12 5.663-10.367 9.449-17.29 10.439l.273 1.903c7.529-1.076 14.316-5.23 18.737-11.437a4.814 4.814 0 006.137-4.62 4.806 4.806 0 00-2.034-3.924zm-26.81-16.064a3.07 3.07 0 01-3.068-3.067 3.07 3.07 0 013.067-3.068 3.07 3.07 0 013.068 3.068 3.07 3.07 0 01-3.068 3.067zm-15.134 9.91a1.93 1.93 0 01-1.928 1.928 1.93 1.93 0 01-1.927-1.927 1.93 1.93 0 011.927-1.928 1.93 1.93 0 011.928 1.928zm39.17 12.963a2.888 2.888 0 01-2.885-2.885 2.888 2.888 0 012.885-2.885 2.888 2.888 0 012.885 2.885 2.888 2.888 0 01-2.885 2.885z"/><path d="M30.09 18.028l1.855-.154a18.091 18.091 0 0110.778 3.565 18.211 18.211 0 016.537 9.046l1.829-.596a20.123 20.123 0 00-7.223-9.996 20 20 0 00-11.96-3.942l-2.017.164-.08.01a12.507 12.507 0 00-10.404 12.311 12.507 12.507 0 0010.408 12.312l2.014.17.08.003a8.68 8.68 0 007.48-4.309l-1.662-.966a6.752 6.752 0 01-5.78 3.352l-1.852-.153a10.582 10.582 0 01-8.765-10.409 10.58 10.58 0 018.76-10.408z"/><path d="M52.076 36.129c0-1.424-.15-2.846-.446-4.228l-1.88.402c.267 1.25.403 2.537.403 3.826 0 10.056-8.177 18.242-18.23 18.255l-1.898-.066a25.843 25.843 0 01-17.083-8.155 25.853 25.853 0 01-7-17.727c0-2.45.341-4.875 1.014-7.206l-1.848-.533a27.911 27.911 0 00-1.09 7.739 27.77 27.77 0 007.52 19.041 27.76 27.76 0 0018.37 8.76l1.982.07h.017c11.121-.005 20.17-9.056 20.17-20.178zM7.565 19.384a25.83 25.83 0 013.636-6.61 3.855 3.855 0 005.036-5.033 25.859 25.859 0 0111.966-4.993L27.932.844a27.785 27.785 0 00-12.856 5.363 3.83 3.83 0 00-2.394-.838 3.855 3.855 0 00-3.85 3.85c0 .904.313 1.735.836 2.393a27.745 27.745 0 00-3.906 7.1l1.803.672zm5.117-12.092a1.93 1.93 0 011.927 1.928 1.93 1.93 0 01-1.927 1.927 1.93 1.93 0 01-1.928-1.927 1.93 1.93 0 011.928-1.928zm19.2-4.804V.565c-.658 0-1.322.024-1.975.07l.135 1.918a26.548 26.548 0 011.84-.065zm.024 59.589V64c.658 0 1.323-.023 1.977-.07l-.135-1.918c-.61.043-1.229.065-1.842.065zm21.939-46.476c.423.453.837.923 1.231 1.4l1.482-1.226a32.324 32.324 0 00-1.309-1.488l-1.404 1.314zm5.224 7.671l1.738-.823a31.924 31.924 0 00-.905-1.765l-1.683.93c.299.541.585 1.1.85 1.658zm-.179-4.292a32.04 32.04 0 00-1.116-1.639l-1.556 1.132c.365.5.718 1.018 1.05 1.54l1.622-1.034zM14.328 54.392a4.81 4.81 0 00-4.804 4.804A4.81 4.81 0 0014.328 64a4.81 4.81 0 004.804-4.804 4.81 4.81 0 00-4.804-4.804zm0 7.685a2.884 2.884 0 01-2.88-2.881 2.884 2.884 0 012.88-2.88 2.884 2.884 0 012.881 2.88 2.884 2.884 0 01-2.88 2.88zM55.526 6.868a3.438 3.438 0 003.434-3.434A3.438 3.438 0 0055.526 0a3.438 3.438 0 00-3.434 3.434 3.438 3.438 0 003.434 3.434zm0-4.945a1.511 1.511 0 010 3.021 1.511 1.511 0 010-3.02z"/></g><defs><clipPath id="clip0_60_49"><path fill="#fff" transform="translate(.413)" d="M0 0h64v64H0z"/></clipPath></defs></svg>