<svg width="20" height="20" fill="none" xmlns="http://www.w3.org/2000/svg"><path d="M19.739 7.284a.927.927 0 00-1.254.003L7.826 17.36c-1.383 1.3-3.629 1.3-5.014-.002-1.385-1.302-1.385-3.412 0-4.714L13.786 2.275c.864-.811 2.267-.811 3.133.002a1.996 1.996 0 010 2.946l-9.091 8.544-.002.002a.927.927 0 01-1.252-.002.798.798 0 010-1.178l4.389-4.125a.798.798 0 000-1.178.927.927 0 00-1.255 0L5.32 11.41a2.395 2.395 0 000 3.535c1.04.976 2.723.976 3.762 0l.003-.003L18.173 6.4c1.558-1.464 1.558-3.839 0-5.303-1.559-1.464-4.085-1.464-5.642 0L1.556 11.466c-2.075 1.95-2.075 5.117.002 7.07 2.078 1.952 5.447 1.952 7.524 0l10.66-10.074a.798.798 0 00-.003-1.178z" fill="#73AF27"/></svg>